<svg width="667" height="572" viewBox="0 0 667 572" fill="none" xmlns="http://www.w3.org/2000/svg">
<g clip-path="url(#clip0_137_25)">
<path d="M656.658 450.127L349.763 553.824C345.941 555.11 341.765 554.829 338.15 553.041C334.536 551.253 331.779 548.104 330.483 544.286L188.326 123.774C187.039 119.953 187.32 115.777 189.109 112.164C190.897 108.55 194.046 105.793 197.865 104.498L504.76 0.801796C508.582 -0.484807 512.759 -0.203212 516.373 1.58479C519.988 3.3728 522.745 6.5212 524.041 10.3393L666.198 430.852C667.485 434.673 667.203 438.848 665.415 442.462C663.626 446.075 660.477 448.832 656.658 450.127Z" fill="#59C174"/>
<path d="M648.826 442.362L351.278 542.9C348.695 543.769 345.873 543.579 343.431 542.371C340.989 541.163 339.126 539.036 338.25 536.456L199.252 125.288C198.383 122.706 198.573 119.885 199.781 117.443C200.99 115.002 203.118 113.139 205.698 112.264L503.246 11.7256C505.828 10.8563 508.65 11.0466 511.092 12.2547C513.535 13.4628 515.398 15.5901 516.273 18.1699L655.271 429.338C656.141 431.92 655.951 434.741 654.742 437.182C653.534 439.624 651.406 441.487 648.826 442.362Z" fill="white"/>
<path d="M574.025 570.767H250.077C246.044 570.762 242.178 569.159 239.326 566.308C236.474 563.457 234.87 559.592 234.866 555.56V111.68C234.87 107.648 236.474 103.783 239.326 100.932C242.178 98.0809 246.044 96.4772 250.077 96.4727H574.025C578.058 96.4772 581.924 98.0809 584.776 100.932C587.628 103.783 589.232 107.648 589.236 111.68V555.56C589.232 559.592 587.628 563.457 584.776 566.308C581.924 569.159 578.058 570.762 574.025 570.767Z" fill="#59C174"/>
<path d="M569.092 560.903H255.01C252.285 560.9 249.673 559.816 247.746 557.89C245.819 555.964 244.735 553.352 244.732 550.628V116.612C244.735 113.888 245.819 111.276 247.746 109.35C249.673 107.423 252.285 106.34 255.01 106.337H569.092C571.817 106.34 574.429 107.423 576.356 109.35C578.283 111.276 579.367 113.888 579.37 116.612V550.628C579.367 553.352 578.283 555.964 576.356 557.89C574.429 559.816 571.817 560.9 569.092 560.903Z" fill="white"/>
<path d="M502.183 229.453H294.739C292.991 229.453 291.315 228.759 290.08 227.524C288.844 226.288 288.15 224.613 288.15 222.866C288.15 221.119 288.844 219.443 290.08 218.208C291.315 216.972 292.991 216.278 294.739 216.278H502.183C503.93 216.278 505.606 216.972 506.842 218.208C508.078 219.443 508.772 221.119 508.772 222.866C508.772 224.613 508.078 226.288 506.842 227.524C505.606 228.759 503.93 229.453 502.183 229.453Z" fill="#F5F5F5"/>
<path d="M529.363 251.687H294.739C293.873 251.687 293.017 251.516 292.217 251.185C291.418 250.854 290.691 250.369 290.08 249.757C289.468 249.145 288.982 248.419 288.651 247.62C288.32 246.821 288.15 245.964 288.15 245.099C288.15 244.234 288.32 243.377 288.651 242.578C288.982 241.779 289.468 241.053 290.08 240.441C290.691 239.829 291.418 239.344 292.217 239.013C293.017 238.682 293.873 238.511 294.739 238.511H529.363C531.111 238.511 532.787 239.205 534.022 240.441C535.258 241.676 535.952 243.352 535.952 245.099C535.952 246.846 535.258 248.522 534.022 249.757C532.787 250.993 531.111 251.687 529.363 251.687Z" fill="#F5F5F5"/>
<path d="M502.182 329.091H294.739C292.992 329.089 291.318 328.394 290.084 327.159C288.85 325.924 288.157 324.249 288.157 322.503C288.157 320.757 288.85 319.083 290.084 317.848C291.318 316.613 292.992 315.918 294.739 315.916H502.182C503.93 315.916 505.606 316.61 506.842 317.845C508.078 319.081 508.772 320.756 508.772 322.503C508.772 324.25 508.078 325.926 506.842 327.161C505.606 328.397 503.93 329.091 502.182 329.091Z" fill="#59C174"/>
<path d="M529.363 351.324H294.739C292.992 351.322 291.318 350.627 290.084 349.392C288.85 348.157 288.157 346.482 288.157 344.736C288.157 342.991 288.85 341.316 290.084 340.081C291.318 338.846 292.992 338.151 294.739 338.149H529.363C531.111 338.149 532.787 338.843 534.022 340.078C535.258 341.314 535.952 342.989 535.952 344.736C535.952 346.484 535.258 348.159 534.022 349.395C532.787 350.63 531.111 351.324 529.363 351.324Z" fill="#F5F5F5"/>
<path d="M502.182 428.728H294.739C292.992 428.726 291.318 428.032 290.084 426.796C288.85 425.561 288.157 423.887 288.157 422.141C288.157 420.395 288.85 418.721 290.084 417.485C291.318 416.25 292.992 415.555 294.739 415.553H502.182C503.93 415.553 505.606 416.247 506.842 417.483C508.078 418.718 508.772 420.394 508.772 422.141C508.772 423.888 508.078 425.564 506.842 426.799C505.606 428.034 503.93 428.728 502.182 428.728Z" fill="#F5F5F5"/>
<path d="M529.363 450.962H294.739C292.991 450.962 291.315 450.268 290.08 449.032C288.844 447.797 288.15 446.121 288.15 444.374C288.15 442.627 288.844 440.951 290.08 439.716C291.315 438.48 292.991 437.786 294.739 437.786H529.363C531.111 437.786 532.787 438.48 534.022 439.716C535.258 440.951 535.952 442.627 535.952 444.374C535.952 446.121 535.258 447.797 534.022 449.032C532.787 450.268 531.111 450.962 529.363 450.962Z" fill="#F5F5F5"/>
<path d="M168.135 304.656H120.447C119.466 304.655 118.525 304.265 117.832 303.571C117.138 302.878 116.748 301.938 116.747 300.957V280.407C116.747 273.104 119.649 266.099 124.814 260.935C129.98 255.771 136.986 252.87 144.291 252.87C151.596 252.87 158.602 255.771 163.767 260.935C168.933 266.099 171.835 273.104 171.835 280.407V300.957C171.833 301.938 171.443 302.878 170.75 303.571C170.056 304.265 169.116 304.655 168.135 304.656Z" fill="#00011E"/>
<path d="M241.737 411.904C240.53 411.841 239.351 411.514 238.284 410.946C237.217 410.379 236.287 409.584 235.561 408.618C234.834 407.653 234.328 406.54 234.078 405.357C233.829 404.175 233.841 402.952 234.115 401.775L209.264 386.105L223.173 379.81L244.64 395.655C246.587 396.247 248.25 397.532 249.313 399.267C250.375 401.001 250.765 403.066 250.407 405.069C250.049 407.072 248.969 408.874 247.371 410.133C245.773 411.393 243.768 412.023 241.737 411.904Z" fill="#FFB8B8"/>
<path d="M224.588 399.119C223.743 399.041 222.938 398.721 222.269 398.199L153.903 345.22L145.089 329.547C144.236 328.039 143.853 326.312 143.989 324.585C144.125 322.858 144.774 321.212 145.852 319.856C146.598 318.914 147.531 318.135 148.592 317.57C149.654 317.005 150.82 316.665 152.019 316.572C153.218 316.479 154.423 316.634 155.559 317.029C156.695 317.423 157.737 318.047 158.62 318.863L234.822 380.653C235.315 380.986 235.736 381.414 236.061 381.912C236.386 382.41 236.608 382.969 236.715 383.554C236.821 384.139 236.81 384.74 236.681 385.32C236.552 385.901 236.308 386.45 235.964 386.935L228.659 397.249C228.312 397.743 227.867 398.161 227.353 398.477C226.839 398.793 226.265 399.001 225.668 399.087C225.31 399.141 224.948 399.151 224.588 399.119Z" fill="#59C174"/>
<path d="M63.4693 550.801L72.8137 554.581L91.8436 520.348L78.0528 514.769L63.4693 550.801Z" fill="#FFB8B8"/>
<path d="M62.3204 546.787L80.7221 554.231C82.2622 554.854 83.6651 555.775 84.8494 556.939C86.0337 558.104 86.977 559.491 87.6253 561.02C88.2735 562.549 88.6142 564.191 88.6277 565.852C88.6413 567.513 88.3275 569.16 87.7043 570.7L87.55 571.081L57.421 558.892L62.3204 546.787Z" fill="#00011E"/>
<path d="M172.35 561.312L182.43 561.311L187.226 522.44L172.348 522.441L172.35 561.312Z" fill="#FFB8B8"/>
<path d="M169.779 558.022L189.63 558.021H189.631C191.292 558.021 192.937 558.348 194.472 558.984C196.007 559.619 197.402 560.551 198.577 561.725C199.751 562.9 200.683 564.294 201.319 565.829C201.955 567.363 202.282 569.008 202.282 570.669V571.08L169.78 571.081L169.779 558.022Z" fill="#00011E"/>
<path d="M180.655 539.337C176.651 539.337 172.725 537.705 170.559 536.62C169.997 536.342 169.507 535.939 169.126 535.441C168.745 534.944 168.484 534.365 168.363 533.751L147.116 426.656L91.9953 529.76C91.4999 530.688 90.667 531.39 89.6686 531.721C77.7969 535.687 71.3224 529.447 69.0892 526.582C68.6349 525.994 68.3516 525.292 68.2706 524.553C68.1897 523.814 68.3141 523.068 68.6303 522.395L94.1588 466.951L109.595 414.283L125.197 375.739L125.537 375.776L177.71 381.266L184.054 416.148L190.443 532.291C190.5 533.217 190.236 534.134 189.696 534.888C188.675 536.319 187.314 537.475 185.736 538.251C184.158 539.028 182.412 539.401 180.655 539.337Z" fill="#00011E"/>
<path d="M151.088 304.343C162.241 304.343 171.283 295.305 171.283 284.154C171.283 273.004 162.241 263.965 151.088 263.965C139.935 263.965 130.894 273.004 130.894 284.154C130.894 295.305 139.935 304.343 151.088 304.343Z" fill="#FFB8B8"/>
<path d="M158.111 397.3C149.32 397.3 138.442 392.155 125.666 381.937L125.449 381.763L134.481 310.525L134.903 310.509C147.822 310.043 158.336 313.322 167.041 320.559L167.115 320.637L174.174 329.709L174.177 329.875L175.172 385.597L175.147 385.676C174.212 388.226 172.704 390.527 170.738 392.402C168.773 394.278 166.403 395.677 163.812 396.491C161.961 397.039 160.041 397.311 158.111 397.3Z" fill="#F5F5F5"/>
<path d="M171.115 430.603C170.128 430.601 169.169 430.274 168.387 429.673C167.604 429.071 167.042 428.228 166.787 427.275L154.388 380.347L146.533 423.101C146.326 424.236 145.689 425.246 144.754 425.921C143.819 426.597 142.658 426.883 141.516 426.722L107.313 421.95C106.661 421.859 106.037 421.626 105.486 421.266C104.934 420.906 104.469 420.429 104.124 419.869C103.778 419.309 103.561 418.679 103.487 418.025C103.413 417.371 103.484 416.709 103.696 416.086L120.997 365.105L117.124 335.235C116.725 332.159 116.971 329.034 117.845 326.058C118.719 323.082 120.202 320.321 122.201 317.949C124.2 315.577 126.67 313.646 129.455 312.28C132.24 310.914 135.279 310.142 138.379 310.012L138.726 309.999L155.177 349.666L157.794 339.202L161.888 316.68L162.5 317.034C168.281 320.366 173.034 325.223 176.241 331.073C179.448 336.924 180.984 343.543 180.682 350.207L179.645 374.061L188.836 422.765C189.054 423.929 188.802 425.132 188.135 426.11C187.468 427.088 186.441 427.763 185.278 427.986L171.947 430.525C171.673 430.577 171.394 430.603 171.115 430.603Z" fill="#59C174"/>
<path d="M178.351 282.462H149.191L148.892 278.276L147.397 282.462H142.907L142.314 274.166L139.351 282.462H130.663V282.051C130.669 276.276 132.967 270.739 137.052 266.655C141.136 262.571 146.674 260.274 152.451 260.268H156.562C162.339 260.274 167.877 262.571 171.962 266.655C176.047 270.739 178.344 276.276 178.351 282.051V282.462Z" fill="#00011E"/>
<path d="M655.297 572H0.822205C0.604143 572 0.395011 571.913 0.240818 571.759C0.0866243 571.605 0 571.396 0 571.178C0 570.96 0.0866243 570.751 0.240818 570.597C0.395011 570.443 0.604143 570.356 0.822205 570.356H655.297C655.516 570.356 655.725 570.443 655.879 570.597C656.033 570.751 656.12 570.96 656.12 571.178C656.12 571.396 656.033 571.605 655.879 571.759C655.725 571.913 655.516 572 655.297 572Z" fill="#F5F5F5"/>
<path d="M158.812 407.777C158.81 409.096 159.093 410.399 159.639 411.599C160.186 412.799 160.984 413.867 161.98 414.732C162.975 415.596 164.145 416.237 165.41 416.61C166.675 416.983 168.006 417.079 169.311 416.893C170.516 419.657 172.501 422.01 175.024 423.662C177.547 425.314 180.497 426.194 183.513 426.194C185.547 426.194 187.561 425.793 189.44 425.015C191.32 424.236 193.027 423.096 194.466 421.658C195.904 420.22 197.045 418.512 197.824 416.634C198.602 414.755 199.003 412.741 199.003 410.707V397.289C199.003 393.835 196.202 392.679 192.748 392.679H174.277C170.823 392.679 168.022 393.835 168.022 397.289V398.569C165.58 398.572 163.239 399.543 161.513 401.269C159.786 402.996 158.815 405.336 158.812 407.777ZM161.324 407.777C161.326 406.002 162.032 404.3 163.288 403.044C164.544 401.789 166.246 401.083 168.022 401.081V410.707C168.022 411.969 168.176 413.226 168.481 414.451C168.329 414.461 168.177 414.474 168.022 414.474C166.246 414.472 164.544 413.766 163.288 412.51C162.032 411.255 161.326 409.553 161.324 407.777Z" fill="#59C174"/>
<path d="M166.229 405.563C165.667 404.493 164.878 403.56 163.916 402.828C162.954 402.096 161.843 401.584 160.662 401.328C159.481 401.071 158.258 401.077 157.079 401.344C155.9 401.612 154.795 402.134 153.84 402.875L129.212 386.855L129.306 402.119L152.678 414.992C154.03 416.513 155.892 417.486 157.913 417.726C159.934 417.967 161.972 417.457 163.643 416.295C165.313 415.133 166.499 413.398 166.976 411.421C167.452 409.443 167.187 407.359 166.229 405.563Z" fill="#FFB8B8"/>
<path d="M139.563 414.88C138.582 414.88 137.641 414.49 136.947 413.796L105.588 382.445C104.586 381.45 103.855 380.215 103.464 378.858C103.073 377.502 103.035 376.067 103.354 374.692C106.038 362.959 112.579 334.926 115.341 328.024C117.356 322.834 121.087 318.489 125.913 315.712L126.037 315.65L135.965 317.484L136.84 348.098L124.847 373.79L150.347 397.856C151.018 398.485 151.429 399.342 151.5 400.259C151.572 401.176 151.297 402.086 150.732 402.811L142.487 413.447C142.166 413.862 141.759 414.203 141.295 414.449C140.831 414.695 140.32 414.839 139.796 414.873C139.718 414.878 139.64 414.88 139.563 414.88Z" fill="#59C174"/>
<path d="M183.478 396.914C189.835 396.914 194.989 396.178 194.989 395.27C194.989 394.362 189.835 393.626 183.478 393.626C177.121 393.626 171.967 394.362 171.967 395.27C171.967 396.178 177.121 396.914 183.478 396.914Z" fill="#F5F5F5"/>
</g>
<defs>
<clipPath id="clip0_137_25">
<rect width="667" height="572" fill="white"/>
</clipPath>
</defs>
</svg>
