<?xml version="1.0" encoding="utf-8"?>
<!-- Generator: Adobe Illustrator 19.0.0, SVG Export Plug-In . SVG Version: 6.00 Build 0)  -->
<svg version="1.1" id="Layer_1" xmlns="http://www.w3.org/2000/svg" xmlns:xlink="http://www.w3.org/1999/xlink" x="0px" y="0px"
	 viewBox="155 33.1 921.2 727.9" style="enable-background:new 155 33.1 921.2 727.9;" xml:space="preserve">
<style type="text/css">
	.st0{fill:#FFD836;}
	.st1{fill:#59C174;}
	.st2{fill:#00011E;}
	.st3{fill:#F2F2F2;}
	.st4{opacity:0.1;enable-background:new    ;}
	.st5{fill:#000316;}
	.st6{fill:#FFB8B8;}
	.st7{fill:#A0616A;}
	.st8{fill:#2F2E41;}
</style>
<title>urban_design</title>
<circle class="st0" cx="364.6" cy="351.3" r="55"/>
<path class="st1" d="M705.6,413.6c0,108.4-64.4,146.2-143.9,146.2S417.8,522,417.8,413.6s143.9-246.2,143.9-246.2
	S705.6,305.3,705.6,413.6z"/>
<polygon class="st2" points="556.5,543.2 558,452.5 619.3,340.4 558.2,438.3 558.9,397.5 601.1,316.4 559,386.8 559,386.8 
	560.2,313.4 605.5,248.8 560.4,301.9 561.2,167.4 556.5,345.4 556.9,338.1 510.8,267.6 556.1,352.2 551.8,434.1 551.7,431.9 
	498.7,357.8 551.5,439.6 551,449.8 550.9,450 551,450.8 540.1,658.6 554.6,658.6 556.4,551.3 609.1,469.7 "/>
<path class="st2" d="M844.5,516c0,108.4-64.4,146.2-143.9,146.2S556.7,624.3,556.7,516s143.9-246.2,143.9-246.2
	S844.5,407.6,844.5,516z"/>
<polygon class="st3" points="695.3,645.6 696.8,554.9 758.1,442.7 697,540.7 697.7,499.9 740,418.7 697.9,489.1 697.9,489.1 
	699.1,415.8 744.3,351.1 699.2,404.2 700,269.7 695.3,447.8 695.7,440.4 649.7,370 695,454.5 690.7,536.4 690.5,534.3 637.5,460.1 
	690.4,541.9 689.8,552.2 689.7,552.3 689.8,553.2 678.9,761 693.4,761 695.2,653.7 748,572.1 "/>
<path class="st2" d="M573.9,516c0,108.4-64.4,146.2-143.9,146.2S286.1,624.3,286.1,516S430,269.7,430,269.7S573.9,407.6,573.9,516z"
	/>
<polygon class="st3" points="424.8,645.6 426.2,554.9 487.6,442.7 426.5,540.7 427.1,499.9 469.4,418.7 427.3,489.1 427.3,489.1 
	428.5,415.8 473.7,351.1 428.7,404.2 429.4,269.7 424.7,447.8 425.1,440.4 379.1,370 424.4,454.5 420.1,536.4 420,534.3 
	366.9,460.1 419.8,541.9 419.3,552.2 419.2,552.3 419.2,553.2 408.3,761 422.9,761 424.6,653.7 477.4,572.1 "/>
<path class="st3" d="M565.4,760.1c-164.3,0-297.5-133.2-297.5-297.5s133.2-297.5,297.5-297.5s297.5,133.2,297.5,297.5
	c0,78.9-31.3,154.6-87.1,210.3C720.1,728.9,644.3,760.3,565.4,760.1z M565.4,167.4c-162.8,0-295.2,132.4-295.2,295.2
	s132.4,295.2,295.2,295.2s295.2-132.4,295.2-295.2S728.2,167.4,565.4,167.4L565.4,167.4z"/>
<polygon class="st3" points="808.6,632.3 808.6,759 322.2,759 322.2,632.3 565.4,505.7 565.9,505.9 "/>
<polygon class="st4" points="808.6,632.3 808.6,759 565.9,759 565.9,505.9 "/>
<rect x="774.2" y="736.4" class="st2" width="1.5" height="23.8"/>
<rect x="792.2" y="742.9" class="st2" width="1.1" height="16.9"/>
<rect x="807.9" y="745" class="st2" width="0.9" height="14.8"/>
<g>
	<g>
		<g>
			<polygon class="st2" points="788.9,659.2 794.9,661.5 794.9,645 788.9,642.3 			"/>
			<polygon class="st2" points="767.6,652.1 774.7,654.8 774.7,636.9 767.6,633.8 			"/>
			<polygon class="st2" points="744.3,643 752.4,646 752.4,626.8 744.3,623.2 			"/>
			<polygon class="st2" points="715.9,631.8 726,635.6 726,615.6 715.9,611.2 			"/>
			<polygon class="st2" points="681.4,618.7 693.6,623.2 693.6,601.4 681.4,596.1 			"/>
			<polygon class="st2" points="639.9,603.4 654.1,608.8 654.1,584.2 639.9,578 			"/>
			<polygon class="st2" points="788.9,692.6 794.9,694.2 794.9,677.4 788.9,675.5 			"/>
			<polygon class="st2" points="767.6,687.6 774.7,689.3 774.7,671.3 767.6,669.1 			"/>
			<polygon class="st2" points="744.3,681.5 752.4,683.5 752.4,664.3 744.3,661.7 			"/>
			<polygon class="st2" points="715.9,674.4 726,676.9 726,656.1 715.9,653 			"/>
			<polygon class="st2" points="681.4,665.3 693.6,668.3 693.6,646 681.4,642.2 			"/>
			<polygon class="st2" points="639.9,655.1 655.1,659 655.1,633.9 639.9,629.1 			"/>
			<polygon class="st2" points="587.2,642 605.4,646.5 605.4,618.7 587.2,612.9 			"/>
			<polygon class="st2" points="587.2,699.7 605.4,702 605.4,674.4 587.2,670.9 			"/>
			<polygon class="st2" points="788.9,725.1 794.9,725.8 794.9,709.9 788.9,708.7 			"/>
			<polygon class="st2" points="767.6,723 774.7,723.9 774.7,706.8 767.6,705.5 			"/>
			<polygon class="st2" points="744.3,720 752.4,721 752.4,701.7 744.3,700.2 			"/>
			<polygon class="st2" points="715.9,715.9 726,717.2 726,696.7 715.9,694.7 			"/>
			<polygon class="st2" points="681.4,711.9 693.6,713.4 693.6,690.6 681.4,688.3 			"/>
			<polygon class="st2" points="639.9,706.8 655.1,708.7 655.1,683.5 639.9,680.6 			"/>
			<polygon class="st2" points="604.4,590.3 586.2,583.4 586.2,554.8 604.4,562.8 			"/>
		</g>
		<polygon class="st2" points="732.1,728.9 732.1,759.5 712.4,759.5 692.6,759.4 692.6,725.1 712.4,727 		"/>
	</g>
</g>
<g>
	<polygon class="st2" points="544.6,583.2 526.4,590.1 526.4,562.9 544.6,554.9 	"/>
	<polygon class="st2" points="343,659.2 336.9,661.5 336.9,645 343,642.3 	"/>
	<polygon class="st2" points="364.3,652.1 357.2,654.8 357.2,636.9 364.3,633.8 	"/>
	<polygon class="st2" points="387.6,643 379.5,646 379.5,626.8 387.6,623.2 	"/>
	<polygon class="st2" points="415.9,631.8 405.8,635.6 405.8,615.6 415.9,611.2 	"/>
	<polygon class="st2" points="450.4,618.7 438.2,623.2 438.2,601.4 450.4,596.1 	"/>
	<polygon class="st2" points="491.9,603.4 477.8,608.8 477.8,584.2 491.9,578 	"/>
	<polygon class="st2" points="343,692.6 336.9,694.2 336.9,677.4 343,675.5 	"/>
	<polygon class="st2" points="364.3,687.6 357.2,689.3 357.2,671.3 364.3,669.1 	"/>
	<polygon class="st2" points="387.6,681.5 379.5,683.5 379.5,664.3 387.6,661.7 	"/>
	<polygon class="st2" points="415.9,674.4 405.8,676.9 405.8,656.1 415.9,653 	"/>
	<polygon class="st2" points="450.4,665.3 438.2,668.3 438.2,646 450.4,642.2 	"/>
	<polygon class="st2" points="491.9,655.1 476.7,659 476.7,633.9 491.9,629.1 	"/>
	<polygon class="st2" points="544.6,642 526.4,646.5 526.4,618.7 544.6,612.9 	"/>
	<polygon class="st2" points="544.6,699.7 526.4,702 526.4,674.4 544.6,670.9 	"/>
	<polygon class="st2" points="343,725.1 336.9,725.8 336.9,709.9 343,708.7 	"/>
	<polygon class="st2" points="364.3,723 357.2,723.9 357.2,706.8 364.3,705.5 	"/>
	<polygon class="st2" points="387.6,720 379.5,721 379.5,701.7 387.6,700.2 	"/>
	<polygon class="st2" points="415.9,715.9 405.8,717.2 405.8,696.7 415.9,694.7 	"/>
	<polygon class="st2" points="450.4,711.9 438.2,713.4 438.2,690.6 450.4,688.3 	"/>
	<polygon class="st2" points="491.9,706.8 476.7,708.7 476.7,683.5 491.9,680.6 	"/>
	<polygon class="st2" points="399.7,759.5 439.3,759.4 439.3,725.1 399.7,728.9 	"/>
</g>
<rect x="155" y="758.5" class="st2" width="885.5" height="2"/>
<polygon class="st5" points="732.1,728.9 732.1,759.5 712.4,759.5 712.4,727 "/>
<rect x="561.4" y="731.6" class="st2" width="2" height="28.4"/>
<path class="st1" d="M574.1,721.5c0,9.9-5.3,18.2-11.7,18.5c-6.2,0.3-11.1-7.2-11.1-16.6s12.1-35.4,12.1-35.4
	S574.1,711.6,574.1,721.5z"/>
<rect x="323.7" y="742.7" class="st2" width="1.2" height="16.9"/>
<path class="st1" d="M331.3,734.7c0,5.9-3.2,10.9-7,11c-3.7,0.2-6.6-4.3-6.6-9.9c0-5.6,7.2-21.1,7.2-21.1S331.3,728.8,331.3,734.7z"
	/>
<path class="st1" d="M783.1,737.4c0,5.6-3.6,10-8.2,9.8c-4.9-0.2-9.1-5.5-9.1-11.8s9.1-22,9.1-22S783.1,731.7,783.1,737.4z"/>
<path class="st1" d="M798.5,743.6c0,4-2.5,7.1-5.8,7c-3.5-0.2-6.5-3.9-6.5-8.4c0-4.5,6.5-15.6,6.5-15.6S798.5,739.6,798.5,743.6z"/>
<path class="st1" d="M813.4,745.6c0,3.5-2.2,6.3-5.1,6.1c-3.1-0.1-5.7-3.4-5.7-7.4s5.7-13.7,5.7-13.7S813.4,742.1,813.4,745.6z"/>
<path class="st6" d="M820.6,196.3c0,0-9.9,29.6-4.4,36.2s-32.9-19.7-32.9-19.7l20.8-24.1L820.6,196.3z"/>
<circle class="st2" cx="798.1" cy="147.1" r="49.2"/>
<polygon class="st6" points="989.4,529.5 964.2,549.2 949.9,526.2 975.1,508.7 "/>
<path class="st1" d="M953.8,678l6.6,31.8L979,735c0,0,50.4,15.3,16.4,23s-41.6-5.5-41.6-5.5l-24.1-20.8v28.5h-15.3l-3.3-40.6
	c0,0-2.2-12.1,7.7-25.2l2.2-19.7L953.8,678z"/>
<path class="st7" d="M826.6,284.6l8.8,50.4c0,0,93.2-9.9,99.7,8.8s8.8,24.1,8.8,24.1l-18.6,6.6l-8.8-16.4
	c-5.4-1.9-11.3-1.5-16.4,1.1c-8.8,4.4-85.5,15.3-91,1.1s-20.8-66.9-20.8-66.9l23-18.6L826.6,284.6z"/>
<path class="st6" d="M826.6,284.6l8.8,50.4c0,0,93.2-9.9,99.7,8.8s8.8,24.1,8.8,24.1l-18.6,6.6l-8.8-16.4
	c-5.4-1.9-11.3-1.5-16.4,1.1c-8.8,4.4-85.5,15.3-91,1.1s-20.8-66.9-20.8-66.9l23-18.6L826.6,284.6z"/>
<path class="st8" d="M878.2,430.3l7.7,26.3l19.7,100.8c0,0,2.2,74.5,5.5,83.3s3.3,9.9,0,13.2c-3.3,3.3-9.9,14.2,0,20.8
	s44.9,14.2,46,6.6s1.1-19.7,0-25.2s3.3-91,3.3-91l-13.2-130.4l-44.9-20.8L878.2,430.3z"/>
<path class="st2" d="M878.2,430.3l7.7,26.3l19.7,100.8c0,0,2.2,74.5,5.5,83.3s3.3,9.9,0,13.2c-3.3,3.3-9.9,14.2,0,20.8
	s44.9,14.2,46,6.6s1.1-19.7,0-25.2s3.3-91,3.3-91l-13.2-130.4l-44.9-20.8L878.2,430.3z"/>
<path class="st2" d="M925.3,327.3l24.1,46c0,0,138.1,61.4,126,86.6c-12.1,25.2-78.9,72.3-78.9,72.3s-3.3,18.6-13.2,13.2
	c-9.9-5.5-34-34-31.8-37.3s9.9-11,13.2-9.9s41.6-28.5,41.6-28.5l-65.8-16.4c0,0-78.9-2.2-83.3-39.5s0-43.8,0-43.8l-5.5-12.1
	l44.9-27.4L925.3,327.3z"/>
<path class="st1" d="M959.3,509.2l-23,20.8c0,0-19.7-8.8-31.8-5.5s-32.9,5.5-32.9,5.5l3.3,18.6l28-5.2L880.3,575
	c0,0,0,49.3,14.2,49.3s9.9-29.6,9.9-29.6l43.8-34c0,0,21.9-8.8,24.1-8.8S959.3,509.2,959.3,509.2z"/>
<circle class="st6" cx="816.2" cy="167.9" r="37.3"/>
<path class="st1" d="M779.5,196.9c0,0,17.5-4.4,23,0s6.6,14.2,14.2,15.3s14.2,1.1,15.3,2.2s26.3,31.8,26.3,31.8s15.3,8.8,18.6,20.8
	s36.2,52.6,40.6,57s-28.5,26.3-39.5,34s-42.7,11-52.6-6.6S762,219.9,779.5,196.9z"/>
<path class="st6" d="M821.2,268.1l8.8,50.4c0,0,93.2-9.9,99.7,8.8s8.8,24.1,8.8,24.1l-18.6,6.6l-8.8-16.4
	c-5.4-1.9-11.3-1.5-16.4,1.1c-8.8,4.4-85.5,15.3-91,1.1s-20.8-66.9-20.8-66.9l23-18.6L821.2,268.1z"/>
<path class="st1" d="M800.2,201.5c0,0,26.4,55.7,24.2,71s-9.9,4.4-9.9,4.4s-9.9-15.3-14.2-6.6s-9.9,20.8-14.2,19.7
	s-28.5-82.2-15.3-89.9S800.2,201.5,800.2,201.5z"/>
<circle class="st2" cx="744.8" cy="82.3" r="49.2"/>
<path class="st2" d="M702.4,123.1c22,15.9,52.8,11,68.7-11.1c3.2-4.5,5.7-9.5,7.3-14.8c-3.4,27-28,46.1-55,42.7s-46.1-28-42.7-55
	c0.3-2.7,0.9-5.3,1.7-7.9C680.1,94.9,687.8,112.5,702.4,123.1z"/>
<circle class="st2" cx="788" cy="155.3" r="36.1"/>
<ellipse class="st2" cx="815.3" cy="141.8" rx="32" ry="25"/>
<ellipse class="st6" cx="816.8" cy="171.7" rx="7.1" ry="12.6"/>
<path class="st2" d="M914.6,357.5c0,0,19.4-11.1,23-8.3s5.2,11.5,5.2,11.5l-22.4,8.8l-6.6-12.1L914.6,357.5z"/>
</svg>
