<svg width="381" height="289" viewBox="0 0 381 289" fill="none" xmlns="http://www.w3.org/2000/svg">
<g clip-path="url(#clip0_158_647)">
<path d="M191.698 0H21.7355C15.9729 0.00648225 10.4481 2.29628 6.37332 6.36704C2.29853 10.4378 0.0064667 15.9571 -7.62939e-06 21.714V221.087C0.0064679 226.844 2.29853 232.364 6.37333 236.434C10.4481 240.505 15.9729 242.795 21.7355 242.801H191.698C197.461 242.795 202.986 240.505 207.061 236.434C211.135 232.364 213.428 226.844 213.434 221.087V21.714C213.428 15.9571 211.135 10.4378 207.061 6.36704C202.986 2.29628 197.461 0.00648225 191.698 0Z" fill="#F5F5F5"/>
<path d="M191.699 6.25098H21.7355C17.6318 6.25557 13.6975 7.88618 10.7957 10.7851C7.89396 13.6839 6.26173 17.6143 6.25712 21.714V221.088C6.26173 225.187 7.89397 229.118 10.7957 232.016C13.6975 234.915 17.6318 236.546 21.7355 236.55H191.699C195.802 236.546 199.737 234.915 202.638 232.016C205.54 229.117 207.172 225.187 207.177 221.088V21.714C207.172 17.6144 205.54 13.684 202.638 10.7851C199.737 7.88624 195.802 6.25562 191.699 6.25098Z" fill="white"/>
<path d="M166.119 64.2234H80.17C79.21 64.2234 78.2894 63.8424 77.6106 63.1643C76.9318 62.4861 76.5504 61.5664 76.5504 60.6074C76.5504 59.6484 76.9318 58.7287 77.6106 58.0505C78.2894 57.3724 79.21 56.9915 80.17 56.9915H166.119C166.594 56.9915 167.065 57.085 167.504 57.2667C167.943 57.4484 168.342 57.7148 168.679 58.0505C169.015 58.3863 169.281 58.7849 169.463 59.2237C169.645 59.6624 169.739 60.1326 169.739 60.6074C169.739 61.0823 169.645 61.5525 169.463 61.9912C169.281 62.4299 169.015 62.8285 168.679 63.1643C168.342 63.5 167.943 63.7664 167.504 63.9481C167.065 64.1298 166.594 64.2234 166.119 64.2234Z" fill="#F5F5F5"/>
<path d="M181.05 76.4272H80.17C79.2107 76.4261 78.2911 76.0447 77.6132 75.3667C76.9353 74.6887 76.5545 73.7696 76.5545 72.8113C76.5545 71.853 76.9353 70.9338 77.6132 70.2558C78.2911 69.5778 79.2107 69.1964 80.17 69.1953H181.05C182.009 69.1964 182.929 69.5778 183.607 70.2558C184.284 70.9338 184.665 71.853 184.665 72.8113C184.665 73.7696 184.284 74.6887 183.607 75.3667C182.929 76.0447 182.009 76.4261 181.05 76.4272Z" fill="#F5F5F5"/>
<path d="M166.119 118.915H80.17C79.21 118.915 78.2894 118.534 77.6106 117.856C76.9318 117.178 76.5504 116.258 76.5504 115.299C76.5504 114.34 76.9318 113.42 77.6106 112.742C78.2894 112.064 79.21 111.683 80.17 111.683H166.119C166.594 111.683 167.065 111.776 167.504 111.958C167.943 112.14 168.342 112.406 168.679 112.742C169.015 113.078 169.281 113.476 169.463 113.915C169.645 114.354 169.739 114.824 169.739 115.299C169.739 115.774 169.645 116.244 169.463 116.683C169.281 117.121 169.015 117.52 168.679 117.856C168.342 118.191 167.943 118.458 167.504 118.64C167.065 118.821 166.594 118.915 166.119 118.915Z" fill="#F5F5F5"/>
<path d="M181.05 131.119H80.17C79.2107 131.118 78.2911 130.736 77.6132 130.058C76.9353 129.38 76.5545 128.461 76.5545 127.503C76.5545 126.544 76.9353 125.625 77.6132 124.947C78.2911 124.269 79.2107 123.888 80.17 123.887H181.05C182.009 123.888 182.929 124.269 183.607 124.947C184.284 125.625 184.665 126.544 184.665 127.503C184.665 128.461 184.284 129.38 183.607 130.058C182.929 130.736 182.009 131.118 181.05 131.119Z" fill="#F5F5F5"/>
<path d="M166.119 173.606H80.17C79.21 173.606 78.2894 173.225 77.6106 172.547C76.9318 171.869 76.5504 170.949 76.5504 169.99C76.5504 169.031 76.9318 168.111 77.6106 167.433C78.2894 166.755 79.21 166.374 80.17 166.374H166.119C166.595 166.373 167.066 166.467 167.506 166.648C167.945 166.83 168.345 167.096 168.681 167.432C169.018 167.768 169.285 168.166 169.467 168.605C169.649 169.044 169.743 169.515 169.743 169.99C169.743 170.465 169.649 170.936 169.467 171.375C169.285 171.814 169.018 172.212 168.681 172.548C168.345 172.884 167.945 173.15 167.506 173.332C167.066 173.513 166.595 173.606 166.119 173.606Z" fill="#F5F5F5"/>
<path d="M181.05 185.81H80.17C79.2107 185.809 78.2911 185.427 77.6132 184.749C76.9353 184.071 76.5545 183.152 76.5545 182.194C76.5545 181.236 76.9353 180.316 77.6132 179.638C78.2911 178.96 79.2107 178.579 80.17 178.578H181.05C182.009 178.579 182.929 178.96 183.607 179.638C184.284 180.316 184.665 181.236 184.665 182.194C184.665 183.152 184.284 184.071 183.607 184.749C182.929 185.427 182.009 185.809 181.05 185.81Z" fill="#F5F5F5"/>
<path d="M60.9169 81.9672H30.5003C30.0401 81.9667 29.599 81.7839 29.2736 81.4588C28.9482 81.1338 28.7652 80.6931 28.7647 80.2334V53.1853C28.7652 52.7256 28.9482 52.2849 29.2736 51.9598C29.599 51.6348 30.0401 51.4519 30.5003 51.4514H60.9169C61.377 51.4519 61.8182 51.6348 62.1435 51.9598C62.4689 52.2849 62.6519 52.7256 62.6524 53.1853V80.2334C62.6519 80.6931 62.4689 81.1338 62.1435 81.4588C61.8182 81.7839 61.377 81.9667 60.9169 81.9672Z" fill="#F5F5F5"/>
<path d="M60.9169 136.659H30.5003C30.0401 136.658 29.599 136.475 29.2736 136.15C28.9482 135.825 28.7652 135.384 28.7647 134.925V107.877C28.7652 107.417 28.9482 106.976 29.2736 106.651C29.599 106.326 30.0401 106.143 30.5003 106.143H60.9169C61.377 106.143 61.8182 106.326 62.1435 106.651C62.4689 106.976 62.6519 107.417 62.6524 107.877V134.925C62.6519 135.384 62.4689 135.825 62.1435 136.15C61.8181 136.475 61.377 136.658 60.9169 136.659Z" fill="#F5F5F5"/>
<path d="M60.9169 191.35H30.5003C30.0401 191.35 29.599 191.167 29.2736 190.842C28.9482 190.517 28.7652 190.076 28.7647 189.616V162.568C28.7652 162.108 28.9482 161.668 29.2736 161.343C29.599 161.018 30.0401 160.835 30.5003 160.834H60.9169C61.377 160.835 61.8182 161.018 62.1435 161.343C62.4689 161.668 62.6519 162.108 62.6524 162.568V189.616C62.6519 190.076 62.4689 190.517 62.1435 190.842C61.8182 191.167 61.377 191.35 60.9169 191.35Z" fill="#F5F5F5"/>
<path d="M341.425 188.56L342.773 176.78L349.534 117.715L350.882 105.935C351.53 100.214 349.881 94.4706 346.295 89.9637C342.71 85.4569 337.481 82.5549 331.757 81.8944L178.349 64.37C172.623 63.7224 166.874 65.3703 162.362 68.9522C157.851 72.5341 154.946 77.7575 154.285 83.4764L154.282 83.5068L144.831 166.072L144.828 166.102C144.179 171.822 145.829 177.566 149.414 182.073C153 186.58 158.228 189.482 163.953 190.142L317.36 207.667C323.087 208.314 328.836 206.666 333.347 203.085C337.859 199.503 340.764 194.279 341.425 188.56Z" fill="#F5F5F5"/>
<path d="M335.208 187.85L336.805 173.898L343.068 119.177L344.665 105.225C345.127 101.151 343.952 97.0607 341.399 93.8513C338.846 90.6418 335.122 88.5753 331.046 88.1049L177.638 70.5805C173.561 70.1193 169.466 71.2929 166.254 73.8436C163.041 76.3944 160.973 80.1141 160.502 84.1867L160.498 84.2171L151.048 166.782L151.044 166.813C150.583 170.886 151.757 174.976 154.311 178.186C156.864 181.395 160.587 183.462 164.664 183.932L318.071 201.456C322.149 201.918 326.243 200.744 329.456 198.193C332.669 195.643 334.737 191.923 335.208 187.85Z" fill="white"/>
<path d="M310.098 112.987L224.705 103.233C224.232 103.179 223.775 103.033 223.359 102.803C222.943 102.573 222.576 102.263 222.28 101.891C221.984 101.519 221.764 101.093 221.633 100.636C221.502 100.179 221.462 99.7009 221.516 99.2288C221.57 98.7568 221.717 98.2999 221.948 97.8845C222.179 97.4691 222.489 97.1032 222.862 96.8077C223.234 96.5123 223.662 96.293 224.119 96.1626C224.576 96.0322 225.055 95.993 225.527 96.0475L310.92 105.802C311.873 105.912 312.743 106.395 313.34 107.146C313.936 107.897 314.21 108.853 314.101 109.805C313.992 110.757 313.509 111.627 312.759 112.224C312.008 112.821 311.051 113.095 310.098 112.987Z" fill="#F5F5F5"/>
<path d="M323.544 126.807L223.317 115.357C222.845 115.304 222.387 115.158 221.971 114.928C221.555 114.697 221.189 114.387 220.892 114.016C220.596 113.644 220.376 113.217 220.245 112.76C220.114 112.304 220.075 111.826 220.129 111.354C220.183 110.882 220.33 110.425 220.56 110.009C220.791 109.594 221.102 109.228 221.474 108.933C221.847 108.637 222.274 108.418 222.731 108.287C223.188 108.157 223.667 108.118 224.14 108.172L324.366 119.622C324.838 119.676 325.295 119.822 325.711 120.052C326.127 120.283 326.493 120.593 326.789 120.964C327.084 121.336 327.304 121.762 327.435 122.219C327.566 122.675 327.605 123.153 327.551 123.625C327.497 124.097 327.351 124.553 327.12 124.968C326.889 125.384 326.579 125.749 326.207 126.045C325.835 126.34 325.408 126.56 324.951 126.69C324.494 126.821 324.016 126.861 323.544 126.807Z" fill="#F5F5F5"/>
<path d="M320.749 150.989L172.984 134.109C172.031 134 171.161 133.516 170.564 132.766C169.968 132.015 169.694 131.059 169.803 130.107C169.912 129.154 170.395 128.284 171.146 127.688C171.896 127.091 172.853 126.816 173.807 126.924L321.572 143.804C322.044 143.858 322.502 144.004 322.918 144.234C323.334 144.464 323.7 144.774 323.997 145.146C324.293 145.518 324.512 145.944 324.643 146.401C324.774 146.858 324.814 147.336 324.76 147.808C324.706 148.28 324.559 148.737 324.329 149.152C324.098 149.568 323.787 149.934 323.415 150.229C323.042 150.525 322.615 150.744 322.158 150.874C321.7 151.005 321.222 151.044 320.749 150.989Z" fill="#F5F5F5"/>
<path d="M319.836 163.169L171.596 146.234C170.643 146.125 169.773 145.641 169.177 144.891C168.58 144.14 168.306 143.184 168.415 142.232C168.524 141.279 169.007 140.409 169.758 139.813C170.508 139.216 171.466 138.941 172.419 139.049L320.659 155.984C321.612 156.093 322.482 156.577 323.079 157.327C323.675 158.078 323.949 159.034 323.84 159.986C323.731 160.939 323.248 161.809 322.497 162.405C321.747 163.002 320.79 163.276 319.836 163.169Z" fill="#F5F5F5"/>
<path d="M318.03 174.748L170.265 157.868C169.792 157.815 169.335 157.669 168.919 157.438C168.503 157.208 168.136 156.898 167.84 156.526C167.544 156.155 167.324 155.728 167.193 155.271C167.062 154.815 167.022 154.336 167.076 153.864C167.13 153.392 167.277 152.935 167.508 152.52C167.739 152.105 168.049 151.739 168.422 151.443C168.794 151.148 169.221 150.929 169.679 150.798C170.136 150.668 170.615 150.629 171.087 150.683L318.852 167.563C319.805 167.673 320.676 168.156 321.272 168.907C321.869 169.657 322.143 170.614 322.034 171.566C321.925 172.518 321.442 173.388 320.691 173.985C319.94 174.581 318.983 174.856 318.03 174.748Z" fill="#F5F5F5"/>
<path d="M317.117 186.927L168.877 169.993C167.924 169.883 167.054 169.4 166.457 168.649C165.861 167.899 165.587 166.942 165.696 165.99C165.805 165.038 166.288 164.168 167.038 163.571C167.789 162.975 168.746 162.7 169.699 162.808L317.939 179.742C318.412 179.796 318.869 179.942 319.285 180.172C319.702 180.402 320.068 180.712 320.364 181.084C320.66 181.456 320.88 181.882 321.011 182.339C321.142 182.796 321.182 183.274 321.128 183.746C321.074 184.218 320.927 184.675 320.696 185.09C320.465 185.506 320.155 185.871 319.782 186.167C319.41 186.462 318.983 186.682 318.525 186.812C318.068 186.942 317.589 186.982 317.117 186.927Z" fill="#F5F5F5"/>
<path d="M203.559 118.676L173.339 115.224C172.882 115.172 172.464 114.94 172.178 114.58C171.892 114.22 171.76 113.761 171.812 113.305L174.888 86.4317C174.941 85.975 175.173 85.5579 175.533 85.2719C175.893 84.9859 176.352 84.8543 176.809 84.906L207.029 88.3582C207.486 88.4109 207.904 88.6426 208.19 89.0025C208.476 89.3624 208.608 89.821 208.556 90.2778L205.48 117.151C205.427 117.607 205.195 118.025 204.835 118.311C204.475 118.597 204.016 118.728 203.559 118.676Z" fill="#59C174"/>
<path d="M380.548 288.929H281.638C281.518 288.929 281.403 288.881 281.318 288.796C281.234 288.712 281.186 288.597 281.186 288.477C281.186 288.358 281.234 288.243 281.318 288.158C281.403 288.074 281.518 288.026 281.638 288.026H380.548C380.668 288.026 380.783 288.074 380.868 288.158C380.952 288.243 381 288.358 381 288.477C381 288.597 380.952 288.712 380.868 288.796C380.783 288.881 380.668 288.929 380.548 288.929Z" fill="#F5F5F5"/>
<path d="M343.408 116.554C343.256 117.153 343.237 117.779 343.353 118.387C343.47 118.994 343.718 119.569 344.08 120.07C344.443 120.572 344.911 120.987 345.452 121.289C345.993 121.59 346.593 121.769 347.21 121.813L350.27 130.985L356.303 130.487L351.8 117.595C351.806 116.553 351.429 115.546 350.741 114.764C350.053 113.981 349.101 113.479 348.067 113.35C347.032 113.222 345.987 113.477 345.128 114.068C344.269 114.658 343.657 115.543 343.408 116.554Z" fill="#FFB8B8"/>
<path d="M348.028 176.619C348.735 177.268 349.601 177.719 350.539 177.927C351.476 178.134 352.451 178.091 353.367 177.802C354.282 177.512 355.105 176.987 355.752 176.278C356.399 175.57 356.847 174.703 357.052 173.766L361.83 151.895C362.647 148.155 362.455 144.266 361.273 140.625L355.68 123.4C355.6 123.153 355.467 122.926 355.291 122.734C355.115 122.543 354.9 122.392 354.66 122.292C354.42 122.191 354.161 122.144 353.901 122.153C353.641 122.162 353.386 122.226 353.153 122.343L349.503 124.168C349.125 124.357 348.826 124.673 348.657 125.06C348.487 125.447 348.459 125.881 348.577 126.286L348.945 127.55C352.005 138.063 352.166 149.207 349.41 159.804L346.438 171.233C346.189 172.19 346.205 173.198 346.485 174.146C346.766 175.095 347.299 175.95 348.028 176.619Z" fill="#E2F9E9"/>
<path d="M328.909 284.21L323.745 284.21L321.29 264.314L328.91 264.314L328.909 284.21Z" fill="#FFB8B8"/>
<path d="M320.057 282.736H330.015V288.999H313.787C313.787 288.177 313.949 287.362 314.265 286.602C314.58 285.842 315.041 285.152 315.624 284.57C316.206 283.989 316.897 283.527 317.658 283.213C318.418 282.898 319.234 282.736 320.057 282.736Z" fill="#2F2E41"/>
<path d="M356.74 284.21L351.576 284.21L349.121 264.314L356.741 264.314L356.74 284.21Z" fill="#FFB8B8"/>
<path d="M347.888 282.736H357.846V288.999H341.618C341.618 288.177 341.78 287.362 342.096 286.602C342.411 285.842 342.872 285.152 343.455 284.57C344.037 283.989 344.728 283.527 345.489 283.213C346.249 282.898 347.065 282.736 347.888 282.736Z" fill="#2F2E41"/>
<path d="M341.618 142.771C347.744 142.771 352.711 137.809 352.711 131.689C352.711 125.568 347.744 120.607 341.618 120.607C335.492 120.607 330.525 125.568 330.525 131.689C330.525 137.809 335.492 142.771 341.618 142.771Z" fill="#FFB8B8"/>
<path d="M303.688 203.961C303.765 203.347 303.976 202.758 304.306 202.235C304.636 201.711 305.077 201.267 305.598 200.932C306.119 200.597 306.707 200.381 307.32 200.298C307.934 200.215 308.558 200.267 309.149 200.451L315.348 193.027L320.783 195.69L311.881 206.051C311.506 207.023 310.787 207.823 309.861 208.301C308.934 208.778 307.865 208.9 306.855 208.642C305.845 208.384 304.965 207.765 304.381 206.903C303.797 206.04 303.55 204.993 303.688 203.961Z" fill="#FFB8B8"/>
<path d="M344.319 142.77C345.989 142.806 347.647 142.489 349.185 141.839C350.723 141.189 352.106 140.222 353.243 139C354.38 137.778 355.245 136.33 355.782 134.75C356.319 133.17 356.515 131.495 356.357 129.834C356.2 128.173 355.692 126.565 354.868 125.114C354.044 123.663 352.922 122.403 351.575 121.416C350.229 120.429 348.688 119.738 347.056 119.388C345.423 119.039 343.734 119.038 342.101 119.387C339.662 117.907 336.826 116.911 333.983 117.165C331.14 117.418 328.329 119.104 327.266 121.75C326.203 124.396 327.345 127.883 329.988 128.959C331.683 129.648 333.596 129.314 335.405 129.036C337.213 128.758 339.186 128.576 340.76 129.508C342.333 130.441 343.041 132.94 341.631 134.105C340.884 134.748 340.351 135.602 340.102 136.555C339.853 137.508 339.901 138.514 340.238 139.439C340.947 141.269 342.88 142.739 344.319 142.77Z" fill="#2C2E48"/>
<path d="M358.082 203.523L360.05 278.124C360.056 278.372 360.011 278.62 359.918 278.85C359.824 279.081 359.684 279.289 359.505 279.463C359.327 279.637 359.115 279.772 358.882 279.86C358.649 279.947 358.4 279.986 358.152 279.974L351.67 279.643C351.256 279.622 350.862 279.46 350.554 279.183C350.246 278.907 350.042 278.533 349.977 278.124L342.267 229.67C342.234 229.463 342.13 229.274 341.972 229.135C341.815 228.996 341.613 228.917 341.403 228.91C341.193 228.904 340.988 228.97 340.822 229.099C340.655 229.228 340.54 229.41 340.494 229.615L330.057 276.268C330.001 276.517 329.893 276.752 329.74 276.956C329.587 277.161 329.392 277.33 329.168 277.454C328.944 277.577 328.696 277.652 328.441 277.673C328.186 277.694 327.93 277.66 327.689 277.574L321.256 277.182C320.884 277.05 320.565 276.799 320.349 276.469C320.133 276.139 320.031 275.747 320.059 275.353L325.675 202.817L358.082 203.523Z" fill="#2C2E48"/>
<path d="M361.24 168.09C362.325 156.785 354.005 146.56 342.665 145.755C337.779 145.409 330.194 145.285 327.694 151.682C320.162 170.955 333.347 170.486 328.804 187.184C324.261 203.881 320.249 204.838 326.482 206.044C332.716 207.25 360.747 214.367 359.596 202.615C358.889 195.391 360.157 179.366 361.24 168.09Z" fill="#E2F9E9"/>
<path d="M329.931 149.722C330.826 149.376 331.797 149.272 332.746 149.42C333.694 149.569 334.587 149.964 335.333 150.567C336.08 151.171 336.654 151.96 336.997 152.855C337.341 153.751 337.442 154.721 337.29 155.668L333.75 177.773C333.144 181.553 331.544 185.104 329.113 188.063L317.615 202.061C317.45 202.262 317.243 202.425 317.009 202.539C316.775 202.653 316.52 202.715 316.26 202.721C316 202.726 315.741 202.676 315.502 202.573C315.263 202.47 315.05 202.317 314.876 202.124L312.144 199.094C311.861 198.78 311.698 198.377 311.682 197.955C311.665 197.533 311.798 197.119 312.056 196.784L312.86 195.742C319.55 187.069 323.77 176.752 325.075 165.882L326.482 154.157C326.6 153.175 326.984 152.243 327.591 151.462C328.199 150.681 329.007 150.079 329.931 149.722Z" fill="#E2F9E9"/>
</g>
<defs>
<clipPath id="clip0_158_647">
<rect width="381" height="289" fill="white"/>
</clipPath>
</defs>
</svg>
