<svg width="530" height="313" viewBox="0 0 530 313" fill="none" xmlns="http://www.w3.org/2000/svg">
<g clip-path="url(#clip0_157_239)">
<path d="M166.981 311.962C166.949 311.821 163.855 297.681 170.173 285.938C176.491 274.195 189.978 269.016 190.113 268.964L190.73 268.733L190.875 269.377C190.907 269.518 194.001 283.657 187.683 295.401C181.365 307.144 167.878 312.323 167.743 312.374L167.126 312.606L166.981 311.962ZM189.884 270.304C187.183 271.469 176.521 276.566 171.185 286.484C165.848 296.404 167.458 308.134 167.972 311.035C170.672 309.873 181.33 304.783 186.671 294.854C192.007 284.936 190.398 273.207 189.884 270.304Z" fill="#E2F9E9"/>
<path d="M182.855 291.282C171.501 298.128 167.128 311.727 167.128 311.727C167.128 311.727 181.163 314.226 192.517 307.379C203.871 300.533 208.244 286.934 208.244 286.934C208.244 286.934 194.208 284.435 182.855 291.282Z" fill="#E2F9E9"/>
<path d="M152.029 204.733H184.106V188.457H152.029V204.733Z" fill="#F5F5F5"/>
<path d="M158.733 190.07C158.814 189.407 158.749 188.734 158.543 188.098C158.336 187.463 157.993 186.881 157.538 186.393C157.083 185.905 156.526 185.522 155.908 185.273C155.289 185.024 154.623 184.914 153.958 184.95L149.445 175.536L143.068 176.889L149.627 190.094C149.762 191.211 150.302 192.239 151.143 192.984C151.984 193.729 153.068 194.139 154.191 194.136C155.313 194.133 156.396 193.717 157.233 192.968C158.07 192.218 158.604 191.187 158.733 190.07Z" fill="#FFB7B7"/>
<path d="M60.7704 299.376L66.0777 302.099L79.0802 282.876L71.2465 278.858L60.7704 299.376Z" fill="#FFB7B7"/>
<path d="M60.3034 296.945L70.7558 302.307C72.5222 303.213 73.8576 304.785 74.4675 306.678C75.0773 308.571 74.9121 310.629 74.0081 312.4L73.8973 312.617L56.7838 303.839L60.3034 296.945Z" fill="#2F2E41"/>
<path d="M122.069 306.824L128.031 306.824L130.868 283.775H122.068L122.069 306.824Z" fill="#FFB7B7"/>
<path d="M120.548 304.873L132.29 304.873C134.274 304.873 136.178 305.663 137.581 307.069C138.985 308.476 139.773 310.383 139.773 312.372V312.616L120.549 312.617L120.548 304.873Z" fill="#2F2E41"/>
<path d="M94.1808 118.817C94.1808 118.817 90.1883 115.751 90.1883 123.239L89.5579 147.986L96.5974 171.364L100.695 163.782L99.0139 147.355L94.1808 118.817Z" fill="#E2F9E9"/>
<path d="M136.889 186.504C136.889 186.504 141.519 209.102 135.655 227.648L132.414 298.954L120.531 298.026L116.364 245.126L112.352 218.831L104.018 242.806L76.5483 293.54L63.8938 283.641C63.8938 283.641 77.9171 245.29 88.277 237.238L93.4728 177.925L136.889 186.504Z" fill="#2C2E48"/>
<path d="M122.804 88.6027C130.287 88.6027 136.353 82.5227 136.353 75.0227C136.353 67.5226 130.287 61.4426 122.804 61.4426C115.321 61.4426 109.254 67.5226 109.254 75.0227C109.254 82.5227 115.321 88.6027 122.804 88.6027Z" fill="#FFB8B8"/>
<path d="M121.845 77.903C123.469 78.1149 124.694 76.4492 125.262 74.9096C125.831 73.3699 126.264 71.5774 127.676 70.7457C129.605 69.6095 132.073 70.9761 134.28 70.6012C136.771 70.1778 138.391 67.5313 138.518 65.0016C138.645 62.472 137.641 60.039 136.655 57.7067L136.311 60.6053C136.357 59.6229 136.151 58.6451 135.712 57.7654C135.273 56.8858 134.617 56.1337 133.805 55.5811L134.248 59.8342C134.154 59.2474 133.945 58.6851 133.633 58.1795C133.322 57.6739 132.913 57.2349 132.432 56.8879C131.95 56.5408 131.405 56.2925 130.828 56.1571C130.251 56.0217 129.652 56.002 129.067 56.099L129.137 58.6331C126.259 58.2902 123.356 57.9467 120.47 58.208C117.584 58.4693 114.678 59.3845 112.49 61.2897C109.218 64.1395 108.023 68.832 108.424 73.1582C108.825 77.4843 110.607 81.5484 112.464 85.4744C112.931 86.4621 113.578 87.5768 114.661 87.7026C115.152 87.7095 115.632 87.5525 116.024 87.2561C116.416 86.9598 116.699 86.541 116.828 86.0659C117.061 85.1073 117.052 84.1056 116.801 83.1515C116.528 81.6933 116.183 80.2028 116.44 78.7416C116.697 77.2804 117.746 75.8365 119.216 75.6574C120.685 75.4784 122.189 77.162 121.483 78.4659L121.845 77.903Z" fill="#2C2E48"/>
<path d="M137.728 192.547L92.5004 189.623L95.9042 175.488L137.241 184.748L137.728 192.547Z" fill="#F5F5F5"/>
<path d="M109.836 93.543L112.673 89.5956C112.673 89.5956 115.843 90.6756 124.335 94.912L124.935 98.6105L139.675 189.477L112.883 188.319L105.587 188.163L103.199 182.799L100.255 188.049L93.1302 187.897L85.8806 183.685L93.0251 161.782L95.3366 141.773L91.7643 122.923C91.7643 122.923 87.2692 105.614 104.582 96.281L109.836 93.543Z" fill="#E2F9E9"/>
<path d="M146.967 185.236L147.94 188.648L154.748 184.204L152.179 181.256L146.967 185.236Z" fill="#F5F5F5"/>
<path d="M114.904 104.526C114.904 104.526 125.457 91.0212 131.836 106.072L133.847 121.845C133.847 121.845 141.575 141.451 141.807 149.384C141.807 149.384 147.046 159.736 146.998 165.174L154.748 182.76L146.799 187.706L124.8 153.898L114.904 104.526Z" fill="#E2F9E9"/>
<path d="M219.485 313H0.574569C0.422184 313 0.27604 312.939 0.168287 312.831C0.0605343 312.723 0 312.577 0 312.424C0 312.271 0.0605343 312.125 0.168287 312.017C0.27604 311.909 0.422184 311.848 0.574569 311.848H219.485C219.638 311.848 219.784 311.909 219.892 312.017C219.999 312.125 220.06 312.271 220.06 312.424C220.06 312.577 219.999 312.723 219.892 312.831C219.784 312.939 219.638 313 219.485 313Z" fill="#E2F9E9"/>
<path d="M210.175 176.047H474.512V41.9214H210.175V176.047Z" fill="white"/>
<path d="M476.693 178.232H207.994V39.7358H476.693V178.232ZM212.355 173.861H472.331V44.1068H212.355V173.861Z" fill="#F1FAF4"/>
<path d="M421.597 66.3478H371.795V151.622H421.597V66.3478Z" fill="#F5F5F5"/>
<path d="M363.543 66.3463H263.089V89.8189H363.543V66.3463Z" fill="#59C174"/>
<path d="M363.543 96.3557H263.089V121.611H363.543V96.3557Z" fill="#F5F5F5"/>
<path d="M363.543 128.148H263.089V151.62H363.543V128.148Z" fill="#F5F5F5"/>
</g>
<defs>
<clipPath id="clip0_157_239">
<rect width="530" height="313" fill="white"/>
</clipPath>
</defs>
</svg>
