<svg width="489" height="258" viewBox="0 0 489 258" fill="none" xmlns="http://www.w3.org/2000/svg">
<path d="M325.013 148.869C325.842 148.869 326.671 148.632 327.381 148.276C328.092 147.92 328.684 147.327 329.276 146.734C329.749 146.022 330.105 145.31 330.341 144.48C330.46 143.65 330.46 142.819 330.341 141.989L347.154 131.313L337.682 127.043L323.119 137.837C321.816 138.193 320.632 139.142 319.922 140.328C319.212 141.514 318.975 142.938 319.212 144.243C319.448 145.548 320.159 146.852 321.224 147.683C322.29 148.513 323.592 148.869 325.013 148.869Z" fill="#FFB8B8"/>
<path d="M374.861 75.9172H407.303C408.013 75.9172 408.605 75.68 409.079 75.2055C409.552 74.731 409.789 74.1379 409.789 73.4262V59.429C409.789 54.4469 407.776 49.7021 404.343 46.1434C400.791 42.5848 396.054 40.6869 391.082 40.6869C386.109 40.6869 381.373 42.7034 377.821 46.1434C374.269 49.7021 372.374 54.4469 372.374 59.429V73.4262C372.374 74.1379 372.611 74.731 373.085 75.2055C373.558 75.68 374.269 75.9172 374.861 75.9172Z" fill="#1C1D32"/>
<path d="M336.617 140.091C337.209 140.091 337.682 139.854 338.156 139.498L384.57 103.437L390.608 92.7614C391.2 91.6938 391.437 90.5076 391.318 89.44C391.2 88.2538 390.845 87.1862 390.016 86.2373C389.542 85.6442 388.832 85.051 388.122 84.6952C387.411 84.3393 386.582 84.1021 385.754 83.9834C384.925 83.8648 384.096 83.9835 383.385 84.3393C382.557 84.5766 381.965 85.0511 381.254 85.6442L329.513 127.636C329.157 127.873 328.921 128.11 328.684 128.466C328.447 128.822 328.329 129.178 328.21 129.534C328.092 129.89 328.092 130.364 328.21 130.72C328.329 131.076 328.447 131.432 328.684 131.788L333.657 138.786C333.893 139.142 334.249 139.379 334.485 139.617C334.841 139.854 335.196 139.972 335.669 139.972C336.143 140.21 336.38 140.21 336.617 140.091Z" fill="#E2F9E9"/>
<path d="M445.902 243.291L439.508 245.901L426.602 222.651L435.956 218.855L445.902 243.291Z" fill="#FFB8B8"/>
<path d="M446.731 240.563L434.298 245.663C433.233 246.138 432.285 246.731 431.457 247.561C430.628 248.392 430.036 249.341 429.562 250.29C429.089 251.357 428.852 252.425 428.852 253.611C428.852 254.797 429.089 255.865 429.444 256.932L429.562 257.17L450.046 248.866L446.731 240.563Z" fill="#1C1D32"/>
<path d="M372.019 250.408H365.152L361.955 223.956H372.019V250.408Z" fill="#FFB8B8"/>
<path d="M373.795 248.155H360.297C359.113 248.155 358.047 248.392 356.982 248.866C355.916 249.341 354.969 249.934 354.14 250.764C353.311 251.595 352.719 252.543 352.246 253.611C351.772 254.679 351.535 255.746 351.535 256.932V257.17H373.558V248.155H373.795Z" fill="#1C1D32"/>
<path d="M366.454 235.462C369.177 235.462 371.782 234.395 373.321 233.564C373.676 233.327 374.032 233.09 374.269 232.734C374.505 232.378 374.742 232.022 374.742 231.548L389.187 158.715L426.602 228.819C426.957 229.412 427.549 229.887 428.141 230.124C436.193 232.852 440.574 228.582 442.113 226.684C442.468 226.328 442.586 225.854 442.705 225.261C442.705 224.786 442.705 224.193 442.468 223.837L425.063 186.235L414.644 150.411L404.106 124.196H403.869L368.467 127.873L364.204 151.597L359.823 230.599C359.823 231.192 359.942 231.903 360.297 232.378C361.007 233.327 361.955 234.157 363.02 234.632C364.086 235.225 365.27 235.462 366.454 235.462Z" fill="#1C1D32"/>
<path d="M386.464 75.68C378.886 75.68 372.729 69.5118 372.729 61.92C372.729 54.3283 378.886 48.16 386.464 48.16C394.042 48.16 400.199 54.3283 400.199 61.92C400.199 69.5118 394.042 75.68 386.464 75.68Z" fill="#FFB8B8"/>
<path d="M381.728 138.905C387.648 138.905 395.107 135.465 403.751 128.466L403.869 128.348L397.712 79.9503H397.475C388.714 79.5944 381.609 81.8483 375.689 86.8303L370.953 92.9986V93.1172L370.243 130.957C370.835 132.737 371.9 134.279 373.203 135.583C374.505 136.888 376.163 137.837 377.939 138.312C379.123 138.786 380.425 138.905 381.728 138.905Z" fill="#1C1D32"/>
<path d="M372.848 161.561C373.558 161.561 374.15 161.324 374.742 160.968C375.216 160.612 375.689 160.019 375.808 159.308L384.214 127.399L389.542 156.461C389.661 157.291 390.134 157.884 390.726 158.359C391.318 158.833 392.147 159.07 392.976 158.952L416.183 155.749C416.656 155.63 417.012 155.512 417.367 155.274C417.722 155.037 418.077 154.681 418.314 154.326C418.551 153.97 418.669 153.495 418.788 153.021C418.788 152.546 418.788 152.072 418.669 151.716L406.947 117.079L409.552 96.7945C409.789 94.6593 409.671 92.5241 409.079 90.5076C408.487 88.491 407.421 86.5931 406.119 85.0511C404.816 83.3904 403.04 82.0855 401.146 81.2552C399.251 80.3062 397.239 79.8318 395.107 79.7131H394.87L383.741 106.64L381.965 99.5228L379.241 84.2207L378.886 84.458C374.979 86.7118 371.782 90.0331 369.532 93.9476C367.401 97.9807 366.336 102.37 366.572 106.996L367.283 123.247L361.008 156.342C360.889 157.172 361.008 158.003 361.481 158.596C361.955 159.308 362.665 159.663 363.376 159.901L372.374 161.68C372.493 161.561 372.729 161.561 372.848 161.561Z" fill="#E2F9E9"/>
<path d="M367.993 60.8524H387.766L388.003 58.0055L389.069 60.8524H392.147L392.502 55.1586L394.515 60.8524H400.435V60.6152C400.435 56.7007 398.896 52.9048 396.054 50.1765C393.331 47.4483 389.542 45.7876 385.635 45.7876H382.793C378.886 45.7876 375.097 47.3296 372.374 50.1765C369.651 52.9048 367.993 56.7007 367.993 60.6152V60.8524Z" fill="#2F2E41"/>
<path d="M44.4007 257.644H488.526C488.645 257.644 488.763 257.644 488.882 257.526C489 257.407 489 257.288 489 257.17C489 257.051 489 256.932 488.882 256.814C488.763 256.695 488.645 256.695 488.526 256.695H44.4007C44.2823 256.695 44.1639 256.695 44.0455 256.814C43.9271 256.932 43.9271 257.051 43.9271 257.17C43.9271 257.288 43.9271 257.407 44.0455 257.526C44.0455 257.644 44.1639 257.644 44.4007 257.644Z" fill="#F5F5F5"/>
<path d="M381.254 146.022C381.254 146.971 381.017 147.801 380.662 148.632C380.307 149.462 379.715 150.174 379.123 150.767C378.413 151.36 377.702 151.835 376.755 152.072C375.926 152.309 374.979 152.428 374.15 152.309C373.321 154.207 372.019 155.749 370.243 156.935C368.585 158.003 366.572 158.714 364.441 158.714C363.02 158.714 361.718 158.477 360.415 157.884C359.113 157.41 357.929 156.579 356.982 155.63C356.035 154.681 355.206 153.495 354.732 152.19C354.259 150.886 353.903 149.581 353.903 148.157V139.023C353.903 136.651 355.798 135.939 358.166 135.939H370.716C373.085 135.939 374.979 136.77 374.979 139.023V139.854C376.637 139.854 378.176 140.566 379.36 141.633C380.544 142.819 381.254 144.361 381.254 146.022ZM379.597 146.022C379.597 144.836 379.123 143.65 378.294 142.819C377.465 141.989 376.281 141.514 375.097 141.514V148.039C375.097 148.869 374.979 149.699 374.742 150.53C374.861 150.53 374.979 150.53 375.097 150.53C376.281 150.53 377.465 150.055 378.294 149.225C379.005 148.394 379.478 147.208 379.597 146.022Z" fill="#E2F9E9"/>
<path d="M376.163 144.48C376.518 143.768 377.11 143.175 377.702 142.582C378.413 142.108 379.123 141.752 379.952 141.514C380.781 141.396 381.609 141.396 382.438 141.514C383.267 141.752 383.977 142.108 384.688 142.582L401.383 131.669L401.264 141.989L385.398 150.767C384.451 151.834 383.267 152.428 381.846 152.665C380.425 152.783 379.123 152.428 377.939 151.716C376.755 150.885 376.045 149.699 375.689 148.394C375.334 147.208 375.571 145.785 376.163 144.48Z" fill="#FFB8B8"/>
<path d="M394.278 150.886C394.989 150.886 395.581 150.648 396.054 150.174L417.367 128.822C418.077 128.11 418.551 127.28 418.788 126.331C419.024 125.382 419.024 124.433 418.906 123.484C417.13 115.537 412.631 96.4387 410.736 91.8125C409.315 88.2538 406.829 85.2883 403.514 83.3904H403.395L396.646 84.6952L396.054 105.454L404.224 122.891L386.938 139.261C386.464 139.735 386.227 140.328 386.109 140.921C386.109 141.515 386.227 142.108 386.582 142.701L392.147 149.937C392.384 150.174 392.621 150.411 392.976 150.648C393.331 150.767 393.686 150.886 394.042 150.886C394.16 150.886 394.278 150.886 394.278 150.886Z" fill="#E2F9E9"/>
<path d="M364.56 138.668C360.297 138.668 356.745 138.193 356.745 137.6C356.745 137.007 360.297 136.532 364.56 136.532C368.822 136.532 372.374 137.007 372.374 137.6C372.374 138.193 368.822 138.668 364.56 138.668Z" fill="#59C174"/>
<path d="M49.9656 65.7158C48.5448 65.7158 47.2423 65.2414 46.0583 64.411L36.7046 57.6497C35.8758 57.0566 35.0469 56.8193 34.0997 56.8193C33.1525 56.8193 32.2053 57.1752 31.4949 57.6497L22.1411 64.411C21.0755 65.2414 19.6547 65.7158 18.2339 65.7158C16.813 65.7158 15.5106 65.2414 14.3266 64.411C13.261 63.5807 12.3138 62.3945 11.9586 61.0896C11.6034 59.7848 11.485 58.3614 11.9586 57.0566L15.5106 46.1434C15.8658 45.1945 15.8658 44.2455 15.5106 43.2965C15.2738 42.3476 14.6818 41.6359 13.853 41.0428L4.49925 34.2814C3.43363 33.451 2.48641 32.2648 2.13121 30.96C1.6576 29.6552 1.6576 28.2317 2.13121 26.9269C2.60481 25.6221 3.43363 24.4359 4.49925 23.6055C5.56486 22.7752 6.98569 22.3007 8.40651 22.3007H19.8915C20.8387 22.3007 21.7859 21.9448 22.4963 21.4703C23.3251 20.8772 23.7987 20.1655 24.154 19.2166L27.706 8.30345C28.1796 6.99862 29.0084 5.81243 30.0741 4.98208C31.1397 4.15174 32.5605 3.67725 33.9813 3.67725C35.4021 3.67725 36.7046 4.15174 37.8886 4.98208C38.9542 5.81243 39.9014 6.99862 40.2566 8.30345L43.8087 19.2166C44.0455 20.1655 44.6375 20.8772 45.4663 21.4703C46.2951 22.0635 47.1239 22.3007 48.0712 22.3007H59.5561C60.977 22.3007 62.2794 22.7752 63.4634 23.6055C64.529 24.4359 65.4762 25.6221 65.8314 26.9269C66.305 28.2317 66.305 29.6552 65.8314 30.96C65.3578 32.2648 64.529 33.451 63.4634 34.2814L54.1096 41.0428C53.2808 41.6359 52.8072 42.3476 52.452 43.2965C52.2152 44.2455 52.2152 45.1945 52.452 46.1434L56.0041 57.0566C56.4777 58.3614 56.4777 59.7848 56.0041 61.0896C55.5305 62.3945 54.7017 63.5807 53.636 64.411C52.6888 65.2414 51.3864 65.7158 49.9656 65.7158Z" fill="#E2F9E9"/>
<path d="M144.214 65.7158C142.793 65.7158 141.49 65.2414 140.306 64.411L130.953 57.6497C130.124 57.0566 129.295 56.8193 128.348 56.8193C127.401 56.8193 126.453 57.1752 125.743 57.6497L116.389 64.411C115.323 65.2414 113.903 65.7158 112.482 65.7158C111.061 65.7158 109.759 65.2414 108.575 64.411C107.509 63.5807 106.562 62.3945 106.207 61.0896C105.733 59.7848 105.733 58.3614 106.207 57.0566L109.759 46.1434C110.114 45.1945 110.114 44.2455 109.759 43.2965C109.522 42.3476 108.93 41.6359 108.101 41.0428L98.7472 34.2814C97.6816 33.451 96.7344 32.2648 96.3792 30.96C95.9056 29.6552 95.9056 28.2317 96.3792 26.9269C96.8528 25.6221 97.6816 24.4359 98.7472 23.6055C99.8128 22.7752 101.234 22.3007 102.654 22.3007H114.139C115.087 22.3007 116.034 21.9448 116.744 21.4703C117.573 20.8772 118.047 20.1655 118.402 19.2166L121.954 8.30345C122.428 6.99862 123.256 5.81243 124.322 4.98208C125.388 4.15174 126.808 3.67725 128.229 3.67725C129.65 3.67725 130.953 4.15174 132.137 4.98208C133.202 5.81243 134.149 6.99862 134.505 8.30345L138.057 19.2166C138.293 20.1655 138.885 20.8772 139.714 21.4703C140.543 22.0635 141.372 22.3007 142.319 22.3007H153.804C155.225 22.3007 156.527 22.7752 157.711 23.6055C158.777 24.4359 159.724 25.6221 160.079 26.9269C160.553 28.2317 160.553 29.6552 160.079 30.96C159.606 32.2648 158.777 33.451 157.711 34.2814L148.358 41.0428C147.529 41.6359 147.055 42.3476 146.7 43.2965C146.345 44.2455 146.463 45.1945 146.7 46.1434L150.252 57.0566C150.726 58.3614 150.726 59.7848 150.252 61.0896C149.778 62.3945 148.95 63.5807 147.884 64.411C146.937 65.2414 145.634 65.7158 144.214 65.7158Z" fill="#E2F9E9"/>
<path d="M206.019 66.0717C204.48 66.0717 203.059 65.5972 201.757 64.6482C200.454 63.8179 199.626 62.5131 199.152 61.0896C198.678 59.6662 198.678 58.1241 199.152 56.582L202.704 45.6689C202.941 44.8386 202.941 44.0082 202.704 43.2965C202.467 42.4662 201.994 41.8731 201.283 41.3986L191.93 34.6372C190.746 33.6883 189.798 32.502 189.325 31.0786C188.851 29.6551 188.851 28.1131 189.325 26.571C189.798 25.1475 190.746 23.8427 191.93 23.0124C193.114 22.0634 194.653 21.5889 196.192 21.5889H207.677C208.506 21.5889 209.335 21.3517 209.927 20.8772C210.637 20.4027 211.111 19.691 211.347 18.9793L214.9 8.06615C215.373 6.64271 216.32 5.33788 217.504 4.50753C218.688 3.55857 220.228 3.08411 221.767 3.08411C223.306 3.08411 224.727 3.55857 226.029 4.50753C227.213 5.4565 228.161 6.64271 228.634 8.06615L232.186 18.9793C232.423 19.8096 232.897 20.4027 233.607 20.8772C234.317 21.3517 235.028 21.5889 235.857 21.5889H247.46C248.999 21.5889 250.42 22.0634 251.723 23.0124C252.907 23.9613 253.854 25.1475 254.327 26.571C254.801 27.9944 254.801 29.5365 254.327 31.0786C253.854 32.502 252.907 33.8069 251.723 34.6372L242.369 41.3986C241.658 41.8731 241.185 42.5848 240.948 43.2965C240.711 44.1269 240.711 44.9572 240.948 45.6689L244.5 56.582C244.974 58.0055 244.974 59.5476 244.5 61.0896C244.026 62.5131 243.079 63.8179 241.895 64.6482C240.711 65.5972 239.172 66.0717 237.633 66.0717C236.093 66.0717 234.673 65.5972 233.37 64.6482L224.016 57.8868C223.306 57.4124 222.596 57.1752 221.767 57.1752C220.938 57.1752 220.109 57.4124 219.517 57.8868L210.163 64.6482C208.979 65.5972 207.559 66.0717 206.019 66.0717ZM221.767 53.8537C223.306 53.8537 224.727 54.3282 226.029 55.2772L235.383 62.0386C236.093 62.5131 236.804 62.7503 237.633 62.7503C238.461 62.7503 239.29 62.5131 239.882 62.0386C240.593 61.5641 241.066 60.8524 241.303 60.1407C241.54 59.3103 241.54 58.48 241.303 57.7683L237.751 46.8551C237.277 45.4317 237.277 43.8896 237.751 42.3476C238.225 40.9241 239.172 39.6193 240.356 38.7889L249.71 32.0275C250.42 31.5531 250.894 30.8413 251.13 30.1296C251.367 29.2993 251.367 28.4689 251.13 27.7572C250.894 26.9269 250.42 26.3337 249.71 25.8593C248.999 25.3848 248.289 25.1476 247.46 25.1476H235.975C234.436 25.1476 233.015 24.6731 231.713 23.7241C230.529 22.7751 229.581 21.5889 229.108 20.1655L225.556 9.25236C225.319 8.42202 224.845 7.82894 224.135 7.35446C223.424 6.87998 222.714 6.64273 221.885 6.64273C221.056 6.64273 220.228 6.87998 219.636 7.35446C218.925 7.82894 218.452 8.54064 218.215 9.25236L214.663 20.1655C214.189 21.5889 213.242 22.8938 212.058 23.7241C210.874 24.6731 209.335 25.1476 207.795 25.1476H196.31C195.482 25.1476 194.653 25.3848 194.061 25.8593C193.35 26.3337 192.877 27.0455 192.64 27.7572C192.403 28.5875 192.403 29.4179 192.64 30.1296C192.877 30.96 193.35 31.5531 194.061 32.0275L203.415 38.7889C204.599 39.7379 205.546 40.9241 206.019 42.3476C206.493 43.771 206.493 45.3131 206.019 46.8551L202.467 57.7683C202.23 58.5986 202.23 59.4289 202.467 60.1407C202.704 60.971 203.178 61.5641 203.888 62.0386C204.599 62.5131 205.309 62.7503 206.138 62.7503C206.967 62.7503 207.795 62.5131 208.387 62.0386L217.741 55.2772C218.807 54.3282 220.346 53.8537 221.767 53.8537Z" fill="#E2F9E9"/>
<path d="M281.678 142.819C280.139 142.819 278.718 142.345 277.416 141.396C276.113 140.565 275.284 139.261 274.811 137.837C274.337 136.414 274.337 134.872 274.811 133.33L278.363 122.417C278.6 121.586 278.6 120.756 278.363 120.044C278.126 119.214 277.653 118.621 276.942 118.146L267.588 111.385C266.404 110.436 265.457 109.25 264.984 107.826C264.51 106.403 264.51 104.861 264.984 103.319C265.457 101.895 266.404 100.59 267.588 99.76C268.772 98.811 270.312 98.3365 271.851 98.3365H283.336C284.165 98.3365 284.993 98.0993 285.585 97.6248C286.296 97.1503 286.769 96.4386 287.006 95.7269L290.558 84.8137C291.032 83.3903 291.979 82.0855 293.163 81.2551C294.347 80.3062 295.886 79.8317 297.426 79.8317C298.965 79.8317 300.386 80.3062 301.688 81.2551C302.872 82.2041 303.819 83.3903 304.293 84.8137L307.845 95.7269C308.082 96.5572 308.555 97.1503 309.266 97.6248C309.976 98.0993 310.687 98.3365 311.515 98.3365H323C324.54 98.3365 325.96 98.811 327.263 99.76C328.447 100.709 329.394 101.895 329.868 103.319C330.341 104.742 330.341 106.284 329.868 107.826C329.394 109.25 328.447 110.554 327.263 111.385L317.909 118.146C317.199 118.621 316.725 119.332 316.488 120.044C316.252 120.874 316.252 121.705 316.488 122.417L320.04 133.33C320.514 134.753 320.514 136.295 320.04 137.837C319.567 139.261 318.62 140.565 317.436 141.396C316.252 142.345 314.712 142.819 313.173 142.819C311.634 142.819 310.213 142.345 308.911 141.396L299.557 134.634C298.846 134.16 298.136 133.923 297.307 133.923C296.478 133.923 295.65 134.16 295.058 134.634L285.704 141.396C284.638 142.345 283.217 142.819 281.678 142.819ZM297.426 130.601C298.965 130.601 300.386 131.076 301.688 132.025L311.042 138.786C311.752 139.261 312.463 139.498 313.291 139.498C314.12 139.498 314.949 139.261 315.541 138.786C316.252 138.312 316.725 137.6 316.962 136.888C317.199 136.058 317.199 135.228 316.962 134.516L313.41 123.603C312.936 122.179 312.936 120.637 313.41 119.095C313.883 117.672 314.831 116.367 316.015 115.537L325.368 108.775C326.079 108.301 326.553 107.589 326.789 106.877C327.026 106.047 327.026 105.217 326.789 104.505C326.553 103.674 326.079 103.081 325.368 102.607C324.658 102.132 323.948 101.895 323.119 101.895H311.634C310.095 101.895 308.674 101.421 307.371 100.472C306.187 99.5227 305.24 98.3365 304.767 96.9131L301.214 86C300.978 85.1696 300.504 84.5765 299.794 84.102C299.083 83.6275 298.373 83.3903 297.544 83.3903C296.715 83.3903 295.886 83.6275 295.294 84.102C294.584 84.5765 294.11 85.2882 293.874 86L290.322 96.9131C289.848 98.3365 288.901 99.6413 287.717 100.472C286.533 101.421 284.993 101.895 283.454 101.895H271.969C271.14 101.895 270.312 102.132 269.72 102.607C269.128 103.081 268.536 103.793 268.299 104.505C268.062 105.335 268.062 106.165 268.299 106.877C268.536 107.708 269.009 108.301 269.72 108.775L279.073 115.537C280.257 116.485 281.205 117.672 281.678 119.095C282.152 120.519 282.152 122.061 281.678 123.603L278.126 134.516C277.889 135.346 277.889 136.177 278.126 136.888C278.363 137.719 278.837 138.312 279.547 138.786C280.257 139.261 280.968 139.498 281.797 139.498C282.625 139.498 283.454 139.261 284.046 138.786L293.4 132.025C294.466 131.076 296.005 130.601 297.426 130.601Z" fill="#E2F9E9"/>
</svg>
